<svg width="9" height="17" viewBox="0 0 9 17" fill="none" xmlns="http://www.w3.org/2000/svg">
<path d="M2.5058 9.465C2.44316 9.465 1.06497 9.465 0.438515 9.465C0.104408 9.465 0 9.33971 0 9.02648C0 8.19122 0 7.33507 0 6.4998C0 6.16569 0.12529 6.06129 0.438515 6.06129H2.5058C2.5058 5.99864 2.5058 4.7875 2.5058 4.2237C2.5058 3.38843 2.65197 2.59493 3.06961 1.86407C3.50812 1.11233 4.13457 0.611168 4.92807 0.318825C5.45012 0.13089 5.97216 0.0473633 6.53596 0.0473633H8.58237C8.87471 0.0473633 9 0.172653 9 0.464997V2.84551C9 3.13785 8.87471 3.26314 8.58237 3.26314C8.01856 3.26314 7.45476 3.26314 6.89095 3.28402C6.32715 3.28402 6.0348 3.55548 6.0348 4.14017C6.01392 4.76662 6.0348 5.37219 6.0348 6.01952H8.45708C8.79118 6.01952 8.91647 6.14481 8.91647 6.47892V9.0056C8.91647 9.33971 8.81207 9.44412 8.45708 9.44412C7.70534 9.44412 6.09745 9.44412 6.0348 9.44412V16.2515C6.0348 16.6065 5.93039 16.7318 5.55452 16.7318C4.67749 16.7318 3.82135 16.7318 2.94432 16.7318C2.63109 16.7318 2.5058 16.6065 2.5058 16.2933C2.5058 14.1007 2.5058 9.52764 2.5058 9.465Z" fill="#F7F7EE"/>
</svg>
