<svg width="15" height="16" viewBox="0 0 15 16" fill="none" xmlns="http://www.w3.org/2000/svg">
<path d="M14.9963 15.8896V15.8889H15V10.3704C15 7.6707 14.4247 5.59106 11.3003 5.59106C9.79836 5.59106 8.79042 6.42367 8.37893 7.21302H8.33549V5.8431H5.37314V15.8889H8.45776V10.9146C8.45776 9.60489 8.70353 8.33842 10.3091 8.33842C11.8912 8.33842 11.9148 9.8331 11.9148 10.9986V15.8896H14.9963Z" fill="#F7F7EE"/>
<path d="M0.223846 5.81519H3.35818V15.6659H0.223846V5.81519Z" fill="#F7F7EE"/>
<path d="M1.79104 0.889648C0.802303 0.889648 0 1.68821 0 2.67234C0 3.65647 0.802303 4.47174 1.79104 4.47174C2.77979 4.47174 3.58209 3.65647 3.58209 2.67234C3.58147 1.68821 2.77916 0.889648 1.79104 0.889648V0.889648Z" fill="#F7F7EE"/>
</svg>
