<svg width="17" height="15" viewBox="0 0 17 15" fill="none" xmlns="http://www.w3.org/2000/svg">
<path d="M17 2.11859C16.3678 2.3959 15.6942 2.57971 14.9919 2.66896C15.7144 2.23759 16.2658 1.55971 16.5251 0.742648C15.8514 1.14427 15.1077 1.42796 14.3151 1.58627C13.6754 0.905211 12.7638 0.483398 11.7693 0.483398C9.83981 0.483398 8.28644 2.04952 8.28644 3.96946C8.28644 4.24571 8.30981 4.51134 8.36719 4.76421C5.46975 4.6229 2.90594 3.23421 1.18362 1.11877C0.882937 1.64046 0.706563 2.23759 0.706563 2.8804C0.706563 4.0874 1.32812 5.15734 2.25463 5.77677C1.69469 5.76615 1.14538 5.60359 0.68 5.34752C0.68 5.35815 0.68 5.37196 0.68 5.38577C0.68 7.0794 1.88806 8.48615 3.47225 8.81021C3.18856 8.88777 2.87937 8.92496 2.5585 8.92496C2.33538 8.92496 2.11012 8.91221 1.89869 8.86546C2.35025 10.2456 3.63163 11.2603 5.15525 11.2933C3.9695 12.2208 2.46394 12.7797 0.834063 12.7797C0.54825 12.7797 0.274125 12.767 0 12.7319C1.54381 13.7275 3.37344 14.2959 5.3465 14.2959C11.7597 14.2959 15.266 8.9834 15.266 4.37852C15.266 4.22446 15.2607 4.07571 15.2533 3.92802C15.9449 3.43715 16.5261 2.82409 17 2.11859Z" fill="#F7F7EE"/>
</svg>
